<svg width="24" height="24" viewBox="0 0 24 24" fill="none" xmlns="http://www.w3.org/2000/svg">
<path fill-rule="evenodd" clip-rule="evenodd" d="M9.29348 21C7.63748 21 6.06348 20.334 4.86148 19.125C2.47348 16.722 2.37548 12.912 4.64248 10.631L12.0285 3.201C12.7975 2.427 13.8355 2 14.9505 2C16.1435 2 17.2775 2.479 18.1425 3.349C19.8635 5.08 19.9295 7.831 18.2885 9.481L10.8935 16.91C10.4145 17.393 9.76948 17.658 9.07748 17.658C8.34648 17.658 7.65348 17.366 7.12748 16.837C6.07448 15.776 6.04148 14.085 7.05448 13.065L13.8795 6.21C14.2695 5.818 14.9015 5.816 15.2935 6.206C15.6845 6.596 15.6865 7.229 15.2965 7.62L8.47248 14.476C8.23248 14.718 8.26548 15.145 8.54648 15.427C8.69248 15.574 8.88648 15.658 9.07748 15.658C9.18748 15.658 9.34548 15.631 9.47548 15.5L16.8705 8.071C17.7375 7.198 17.6725 5.713 16.7245 4.759C15.8175 3.847 14.2785 3.775 13.4465 4.611L6.06048 12.041C4.56648 13.544 4.66448 16.09 6.28048 17.715C7.10348 18.544 8.17348 19 9.29348 19C10.2945 19 11.2225 18.622 11.9045 17.936L19.2915 10.506C19.6805 10.115 20.3135 10.112 20.7055 10.502C21.0965 10.892 21.0985 11.524 20.7095 11.916L13.3225 19.346C12.2625 20.412 10.8315 21 9.29348 21Z" fill="#757D8A"/>
</svg>
