<svg width="24" height="24" viewBox="0 0 24 24" fill="#757D8A" xmlns="http://www.w3.org/2000/svg">
<path fill-rule="evenodd" clip-rule="evenodd" d="M20 14.5996L17.191 11.9996L20 9.40057V14.5996ZM15 15.9996C15 16.5516 14.552 16.9996 14 16.9996H5C4.448 16.9996 4 16.5516 4 15.9996V7.99957C4 7.44857 4.448 6.99957 5 6.99957H14C14.552 6.99957 15 7.44857 15 7.99957V15.9996ZM21.012 7.14557C20.386 6.87257 19.66 6.99157 19.161 7.45157L17 9.45157V7.99957C17 6.34557 15.654 4.99957 14 4.99957H5C3.346 4.99957 2 6.34557 2 7.99957V15.9996C2 17.6546 3.346 18.9996 5 18.9996H14C15.654 18.9996 17 17.6546 17 15.9996V14.5486L19.161 16.5476C19.481 16.8446 19.896 16.9996 20.319 16.9996C20.553 16.9996 20.788 16.9526 21.012 16.8546C21.621 16.5886 22 16.0196 22 15.3706V8.62957C22 7.98057 21.621 7.41157 21.012 7.14557Z"/>
</svg>
